:SAMPLES-PER-SECOND 30
:FULLY-SPECIFIED
:DEGREES
18
root  -2.87061 39.6698 -1.40788 -177.962 -73.1833 175.503
RightUpLeg  -22.5218 -9.84706 -5.53197
RightLeg  16.5729 6.32869 2.03451
RightFoot  -3.67324 -0.607855 8.67896
RightToes  0.00048216 0.542163 -0.142577
Spine  8.9845 -1.3816 -4.44626
Spine1  6.2707 -3.15199 5.06057
HEad  10.7254 28.0483 -13.1017
LeftShoulder1  7.60782 -10.7472 -46.5582
LeftArm  -4.79877 6.05728 -28.6736
LeftForeArm  26.5249 -16.4635 -4.87316
LeftHand  -0.25398 0.0180481 5.50724
RightShoulder  5.08142 8.59407 36.0208
RightArm  -5.30371 -27.7569 40.0075
RightForeArm  28.1431 12.7551 5.62028
RightHand  -0.0913038 -1.84796 -2.57093
LeftUpLeg  8.02775 7.58202 -0.139119
LeftLeg  12.8686 20.8678 -0.600752
LeftFoot  -19.1748 -0.127583 -3.54204
LeftToes  1.06248e-005 4.65856e-005 -8.18499e-006
19
root  -3.56225 39.5236 -1.67673 -176.784 -73.3526 174.583
RightUpLeg  -23.426 -9.99884 -6.5367
RightLeg  11.5154 6.83741 2.29223
RightFoot  -2.77807 -0.670104 8.68421
RightToes  0.00048216 0.542163 -0.142577
Spine  9.78479 -1.52855 -4.48855
Spine1  6.22158 -3.31566 5.04156
HEad  9.97775 28.4727 -13.4681
LeftShoulder1  7.69248 -10.8976 -46.5869
LeftArm  -3.8665 5.35086 -26.8917
LeftForeArm  24.3178 -18.4209 -4.39961
LeftHand  -0.25398 0.0180481 5.50724
RightShoulder  5.05303 8.55184 35.9344
RightArm  -6.99679 -27.5078 38.8438
RightForeArm  27.8792 11.8448 5.51735
RightHand  -0.127209 -1.36393 -3.40606
LeftUpLeg  9.08054 7.59779 -0.117846
LeftLeg  12.6853 20.5867 -0.761625
LeftFoot  -19.9138 -0.180396 -4.00706
LeftToes  1.06248e-005 4.65856e-005 -8.18499e-006
20
root  -4.34978 39.3449 -1.99281 -175.673 -73.8502 173.709
RightUpLeg  -24.1369 -9.13795 -8.06092
RightLeg  7.78431 6.36807 2.36195
RightFoot  -1.77522 -0.722936 8.47879
RightToes  0.00048216 0.542163 -0.142577
Spine  10.5693 -1.63511 -4.23378
Spine1  6.17701 -3.39007 4.85462
HEad  9.47337 28.3029 -13.641
LeftShoulder1  7.76192 -11.0197 -46.614
LeftArm  -3.77993 4.39787 -25.3631
LeftForeArm  23.127 -19.4983 -4.16008
LeftHand  -0.25398 0.0180481 5.50724
RightShoulder  5.00799 8.48417 35.7984
RightArm  -8.51586 -26.938 37.5713
RightForeArm  27.2312 10.841 5.37928
RightHand  -0.148677 -1.23487 -3.92657
LeftUpLeg  10.288 7.63374 0.08284
LeftLeg  12.5541 20.1823 -0.940548
LeftFoot  -20.7849 -0.202449 -3.95783
LeftToes  1.06248e-005 4.65856e-005 -8.18499e-006
21
root  -5.23923 39.1273 -2.38043 -175.102 -74.7097 173.231
RightUpLeg  -24.782 -8.86044 -9.1757
RightLeg  6.39386 6.62245 2.00363
RightFoot  -1.29235 -0.746048 8.36949
RightToes  0.00048216 0.542163 -0.142577
Spine  11.4268 -1.71166 -3.78025
Spine1  6.26272 -3.43718 4.70864
HEad  8.91284 27.6322 -13.8044
LeftShoulder1  7.78384 -11.0882 -46.5246
LeftArm  -4.23852 3.23483 -24.4301
LeftForeArm  22.8201 -19.8844 -4.06853
LeftHand  -0.25398 0.0180481 5.50724
RightShoulder  4.98615 8.4547 35.7204
RightArm  -9.42167 -26.0512 36.0999
RightForeArm  26.4266 10.0945 5.2347
RightHand  -0.160138 -1.30713 -4.30894
LeftUpLeg  11.8193 7.82825 0.786825
LeftLeg  12.5086 18.578 -1.22364
LeftFoot  -21.9674 -0.311534 -4.74892
LeftToes  1.06248e-005 4.65856e-005 -8.18499e-006
22
root  -6.22762 38.8939 -2.85685 -175.185 -76.0998 173.432
RightUpLeg  -25.3943 -9.24586 -9.82199
RightLeg  7.79313 6.39172 1.64917
RightFoot  -1.33997 -0.728204 8.20319
RightToes  0.00048216 0.542163 -0.142577
Spine  12.1402 -1.8558 -3.33654
Spine1  6.57224 -3.68867 5.06106
HEad  8.37261 26.8058 -13.9588
LeftShoulder1  7.77402 -11.1343 -46.3144
LeftArm  -4.9485 2.26831 -24.0991
LeftForeArm  22.827 -19.8631 -4.04605
LeftHand  -0.25398 0.0180481 5.50724
RightShoulder  4.99204 8.47752 35.6909
RightArm  -9.86802 -24.8754 34.5245
RightForeArm  25.9231 9.58546 5.10522
RightHand  -0.17427 -1.28156 -4.68897
LeftUpLeg  13.5305 8.20067 2.07777
LeftLeg  12.4214 15.9902 -1.37748
LeftFoot  -22.9713 -0.508514 -6.34854
LeftToes  1.06248e-005 4.65856e-005 -8.18499e-006
23
root  -7.31833 38.6796 -3.41808 -177.088 -78.0451 175.825
RightUpLeg  -25.9369 -10.3959 -9.63468
RightLeg  11.0426 4.9867 1.50877
RightFoot  -0.92516 -0.720016 7.82202
RightToes  0.00048216 0.542163 -0.142577
Spine  12.475 -2.14854 -2.53778
Spine1  6.83061 -4.18092 5.89884
HEad  8.14403 26.0145 -13.943
LeftShoulder1  7.75429 -11.2062 -45.9618
LeftArm  -5.66121 2.04884 -24.2626
LeftForeArm  22.8266 -19.7903 -4.02683
LeftHand  -0.25398 0.0180481 5.50724
RightShoulder  4.95956 8.44755 35.5266
RightArm  -10.107 -23.6416 33.1158
RightForeArm  25.4262 9.25924 5.00869
RightHand  -0.196257 -1.18868 -5.21684
LeftUpLeg  14.8444 8.85581 4.0302
LeftLeg  12.5888 13.4332 -0.876135
LeftFoot  -23.4368 -0.61937 -7.1708
LeftToes  1.06248e-005 4.65856e-005 -8.18499e-006
24
root  -8.52316 38.4847 -4.05443 176.198 -79.9704 -176.741
RightUpLeg  -26.3877 -12.4979 -7.96932
RightLeg  14.9326 4.11869 1.39986
RightFoot  0.517606 -0.801783 7.73336
RightToes  0.00048216 0.542163 -0.142577
Spine  12.7053 -2.53079 -0.703069
Spine1  6.72733 -4.58417 6.58499
HEad  8.17783 25.2993 -13.8227
LeftShoulder1  7.76348 -11.3347 -45.6071
LeftArm  -6.35807 2.94788 -24.6485
LeftForeArm  22.7672 -20.3675 -3.89867
LeftHand  -0.25398 0.0180481 5.50724
RightShoulder  4.88207 8.34082 35.2522
RightArm  -10.2678 -22.452 31.9198
RightForeArm  24.312 9.22025 4.97762
RightHand  -0.225647 -1.13816 -5.97221
LeftUpLeg  15.7273 9.87715 6.93587
LeftLeg  13.3974 10.3146 0.19283
LeftFoot  -23.7385 -0.748438 -8.1617
LeftToes  1.06248e-005 4.65856e-005 -8.18499e-006
25
root  -9.82266 38.2871 -4.7578 164.128 -80.9849 -164.285
RightUpLeg  -26.6273 -14.441 -5.47311
RightLeg  19.127 4.6419 1.56076
RightFoot  1.91447 -0.922425 8.04571
RightToes  0.00048216 0.542163 -0.142577
Spine  13.3427 -2.8756 2.03694
Spine1  6.5161 -4.62799 6.69816
HEad  8.11229 24.8642 -13.8544
LeftShoulder1  7.83057 -11.4913 -45.5185
LeftArm  -7.43525 4.98762 -24.8117
LeftForeArm  22.8046 -22.2828 -3.78226
LeftHand  -0.25398 0.0180481 5.50724
RightShoulder  4.88623 8.3505 35.2531
RightArm  -10.4703 -20.9052 30.7222
RightForeArm  22.5334 9.32945 5.00402
RightHand  -0.273956 -0.931071 -6.98476
LeftUpLeg  16.556 10.4549 10.4728
LeftLeg  15.2617 6.56297 1.3337
LeftFoot  -23.7361 -1.1983 -12.3376
LeftToes  1.06248e-005 4.65856e-005 -8.18499e-006
26
root  -11.1497 38.1112 -5.50647 152.173 -81.0456 -152.376
RightUpLeg  -26.4179 -15.03 -3.56513
RightLeg  23.4484 5.05928 2.18431
RightFoot  1.61538 -0.874379 7.7733
RightToes  0.00048216 0.542163 -0.142577
Spine  14.3662 -3.1649 4.72192
Spine1  6.65645 -4.42203 6.42287
HEad  7.85157 24.8352 -14.0014
LeftShoulder1  7.90132 -11.5894 -45.6364
LeftArm  -9.28428 7.74053 -24.6556
LeftForeArm  23.4932 -25.2004 -4.13372
LeftHand  -0.25398 0.0180481 5.50724
RightShoulder  5.05675 8.60746 35.7745
RightArm  -10.8598 -18.4819 29.5587
RightForeArm  20.8654 9.11237 5.01973
RightHand  -0.346625 -0.421427 -8.05386
LeftUpLeg  16.2411 8.72547 13.1047
LeftLeg  19.9993 6.33996 3.0321
LeftFoot  -21.6145 -1.48922 -18.1154
LeftToes  1.06248e-005 4.65856e-005 -8.18499e-006
27
root  -12.4314 38.0102 -6.25529 143.033 -81.0197 -143.239
RightUpLeg  -25.869 -15.579 -2.05301
RightLeg  27.2688 5.11165 2.6236
RightFoot  -0.764924 -0.608379 6.48223
RightToes  0.00048216 0.542163 -0.142577
Spine  15.3517 -3.41935 6.91681
Spine1  7.01824 -4.10769 5.92813
HEad  7.67075 24.7466 -13.9175
LeftShoulder1  7.89016 -11.5912 -45.5639
LeftArm  -10.7411 10.4056 -24.7391
LeftForeArm  24.3158 -27.8183 -4.68159
LeftHand  -0.25398 0.0180481 5.50724
RightShoulder  5.2907 8.9456 36.504
RightArm  -11.3475 -15.2165 28.8129
RightForeArm  19.9883 8.44411 4.99282
RightHand  -0.405339 0.0320565 -8.70569
LeftUpLeg  12.5293 5.69107 14.2617
LeftLeg  30.0769 10.5547 6.9866
LeftFoot  -15.3733 -0.629663 -18.8075
LeftToes  1.06248e-005 4.65856e-005 -8.18499e-006
